# Blender v2.79 (sub 0) OBJ File: 'armour.blend'
# www.blender.org
mtllib armour.mtl
o Cube
v 0.574805 -0.607348 -0.688656
v 0.574805 -0.607348 0.785941
v 0.574806 0.667938 -0.688655
v 0.574805 0.667938 0.785942
v 0.278140 -0.597395 1.047911
v 0.574805 -0.975653 -0.302753
v 0.574805 -0.975653 0.237931
v 0.583261 -0.082846 -0.806256
v 0.583260 -0.082846 0.909804
v 1.214308 0.242709 -0.481234
v 1.214307 0.242709 0.564486
v 0.245319 -0.595191 0.904158
v 0.245319 0.525605 0.904158
v 0.191497 -1.220451 0.566236
v 0.246831 -0.093932 1.047531
v 0.282523 -0.595191 -0.866997
v 0.282523 0.525605 -0.866996
v 0.228701 -1.161217 -0.533380
v 0.284583 -0.093932 -1.013647
v 0.574805 -0.791500 0.511936
v 0.574805 -0.791500 -0.495704
v 0.218408 -0.885543 0.698399
v 0.255612 -0.878204 -0.700188
v 0.225010 -1.220957 0.660127
v 0.251921 -0.926701 0.779140
v 0.139281 -1.579778 0.644150
v 0.144554 -1.579858 0.658921
v 0.642661 -0.109379 -1.047245
v 0.629583 0.723824 -0.863299
v 0.645975 -0.108641 1.149071
v 0.632042 0.723190 0.960192
v 1.351314 0.223375 -0.651020
v 1.257241 0.670615 -0.522833
v 1.352572 0.223727 0.732212
v 1.257971 0.670905 0.600499
v 0.278140 0.523401 1.047911
v 0.279652 -0.096137 1.191285
v -0.574805 -0.607348 -0.688656
v -0.574805 -0.607348 0.785941
v 0.000000 -0.607348 0.982467
v 0.000000 -0.607348 -0.982467
v -0.574806 0.667938 -0.688655
v -0.574805 0.667938 0.785942
v 0.000000 0.499806 0.982466
v 0.000000 0.565420 -0.982467
v 0.000000 -0.609552 1.126220
v -0.278140 -0.597395 1.047911
v -0.574805 -0.975653 -0.302753
v -0.574805 -0.975653 0.237931
v 0.000000 -1.251911 -0.640841
v 0.000000 -1.248008 0.686667
v -0.583261 -0.082846 -0.806256
v -0.583260 -0.082846 0.909804
v 0.000000 -0.082846 -1.148178
v -1.214308 0.242709 -0.481234
v -1.214307 0.242709 0.564486
v -0.245319 -0.595191 0.904158
v -0.245319 0.525605 0.904158
v -0.191497 -1.220451 0.566236
v -0.246831 -0.093932 1.047531
v -0.282523 -0.595191 -0.866997
v -0.282523 0.525605 -0.866996
v -0.228701 -1.161217 -0.533380
v -0.284583 -0.093932 -1.013647
v 0.000000 -0.929629 -0.811654
v 0.000000 -0.929629 0.781423
v -0.574805 -0.791500 0.511936
v -0.574805 -0.791500 -0.495704
v -0.218408 -0.885543 0.698399
v -0.255612 -0.878204 -0.700188
v -0.225010 -1.220957 0.660127
v 0.000000 -1.248514 0.780558
v -0.251921 -0.926701 0.779140
v 0.000000 -0.970788 0.862163
v -0.139281 -1.579778 0.644150
v 0.000000 -1.584113 0.663096
v -0.144554 -1.579858 0.658921
v 0.000000 -1.584193 0.677867
v -0.642661 -0.109379 -1.047245
v -0.629583 0.723824 -0.863299
v -0.645975 -0.108641 1.149071
v -0.632042 0.723190 0.960192
v -1.351314 0.223375 -0.651020
v -1.257241 0.670615 -0.522833
v -1.352572 0.223727 0.732212
v -1.257971 0.670905 0.600499
v 0.000000 -0.085050 1.282263
v 0.000000 0.497601 1.126220
v -0.278140 0.523401 1.047911
v -0.279652 -0.096137 1.191285
vn 0.3889 -0.2691 -0.8811
vn 0.5479 -0.2006 0.8121
vn 0.3155 0.1838 0.9310
vn 0.3480 -0.2395 0.9064
vn 0.6075 -0.5063 -0.6120
vn 1.0000 0.0000 0.0000
vn 0.4100 0.2188 -0.8855
vn 0.6376 -0.4950 0.5903
vn 0.5082 0.1668 -0.8449
vn 0.4740 -0.4449 -0.7598
vn 0.5334 -0.2161 -0.8178
vn 0.2703 -0.9626 -0.0178
vn 0.3904 -0.4616 -0.7965
vn 0.3662 -0.6718 0.6439
vn 0.4905 -0.5493 -0.6765
vn 0.3351 -0.5314 0.7780
vn 0.5265 -0.1941 -0.8278
vn -0.3889 -0.2691 -0.8811
vn -0.5479 -0.2006 0.8121
vn -0.3155 0.1838 0.9310
vn -0.3480 -0.2395 0.9064
vn -0.6075 -0.5063 -0.6120
vn -1.0000 0.0000 0.0000
vn -0.4100 0.2188 -0.8855
vn -0.6376 -0.4950 0.5903
vn -0.5082 0.1668 -0.8449
vn -0.4740 -0.4449 -0.7598
vn -0.5334 -0.2161 -0.8178
vn -0.2703 -0.9626 -0.0178
vn -0.3904 -0.4616 -0.7965
vn -0.3662 -0.6718 0.6439
vn -0.4905 -0.5493 -0.6765
vn -0.3351 -0.5314 0.7780
vn -0.5265 -0.1941 -0.8278
vn 0.3073 -0.9175 -0.2527
vn 0.0404 -0.9990 -0.0199
vn -0.1379 -0.9905 0.0002
vn 0.3139 -0.9153 0.2523
vn -0.3844 -0.0432 -0.9222
vn -0.7043 0.7099 0.0007
vn -0.0905 0.9956 0.0256
vn 0.4120 -0.3188 0.8536
vn 0.9366 0.0579 -0.3457
vn -0.0062 0.8904 0.4552
vn 0.0291 -0.9995 -0.0106
vn 0.3607 -0.1787 0.9154
vn 0.9214 -0.2054 -0.3300
vn 0.0839 0.9965 0.0000
vn 0.9785 0.2064 -0.0008
vn 0.4275 0.2477 -0.8694
vn 0.4469 0.2530 0.8581
vn -0.9604 0.0409 0.2757
vn -0.9643 0.0368 -0.2623
vn 0.2768 0.2326 0.9324
vn 0.2802 -0.2694 0.9214
vn 0.9736 -0.0492 -0.2230
vn 0.9733 0.0604 -0.2213
vn -0.3073 -0.9175 -0.2527
vn -0.0404 -0.9990 -0.0199
vn 0.1379 -0.9905 0.0002
vn -0.3139 -0.9153 0.2523
vn 0.3844 -0.0432 -0.9222
vn 0.7043 0.7099 0.0007
vn 0.0905 0.9956 0.0256
vn -0.4120 -0.3188 0.8536
vn -0.9366 0.0579 -0.3457
vn 0.0062 0.8904 0.4552
vn -0.0291 -0.9995 -0.0106
vn -0.3607 -0.1787 0.9154
vn -0.9214 -0.2054 -0.3300
vn -0.0839 0.9965 0.0000
vn -0.9785 0.2064 -0.0008
vn -0.4275 0.2477 -0.8694
vn -0.4469 0.2530 0.8581
vn 0.9604 0.0409 0.2757
vn 0.9643 0.0368 -0.2623
vn -0.2768 0.2326 0.9324
vn -0.2802 -0.2694 0.9214
vn -0.9736 -0.0492 -0.2230
vn -0.9733 0.0604 -0.2213
usemtl armourBase
s off
f 19//1 16//1 41//1 54//1
f 9//2 2//2 11//2
f 9//3 4//3 13//3 15//3
f 2//4 9//4 15//4 12//4
f 23//5 21//5 6//5 18//5
f 21//6 20//6 7//6 6//6
f 17//7 19//7 54//7 45//7
f 20//8 22//8 14//8 7//8
f 3//9 8//9 19//9 17//9
f 65//10 23//10 18//10 50//10
f 8//11 1//11 16//11 19//11
f 50//12 18//12 14//12 51//12
f 41//13 16//13 23//13 65//13
f 2//14 12//14 22//14 20//14
f 1//6 2//6 20//6 21//6
f 16//15 1//15 21//15 23//15
f 12//16 40//16 66//16 22//16
f 8//17 10//17 1//17
f 64//18 54//18 41//18 61//18
f 53//19 56//19 39//19
f 53//20 60//20 58//20 43//20
f 39//21 57//21 60//21 53//21
f 70//22 63//22 48//22 68//22
f 68//23 48//23 49//23 67//23
f 62//24 45//24 54//24 64//24
f 67//25 49//25 59//25 69//25
f 42//26 62//26 64//26 52//26
f 65//27 50//27 63//27 70//27
f 52//28 64//28 61//28 38//28
f 50//29 51//29 59//29 63//29
f 41//30 65//30 70//30 61//30
f 39//31 67//31 69//31 57//31
f 38//23 68//23 67//23 39//23
f 61//32 70//32 68//32 38//32
f 57//33 69//33 66//33 40//33
f 52//34 38//34 55//34
usemtl Material
f 9//35 11//35 34//35 30//35
f 40//36 12//36 5//36 46//36
f 11//37 10//37 32//37 34//37
f 10//38 8//38 28//38 32//38
f 51//39 14//39 26//39 76//39
f 3//40 4//40 31//40 29//40
f 13//41 44//41 88//41 36//41
f 25//42 74//42 72//42 24//42
f 14//43 22//43 25//43 24//43
f 22//44 66//44 74//44 25//44
f 76//45 26//45 27//45 78//45
f 24//46 72//46 78//46 27//46
f 14//47 24//47 27//47 26//47
f 29//48 31//48 35//48 33//48
f 32//49 33//49 35//49 34//49
f 28//50 29//50 33//50 32//50
f 31//51 30//51 34//51 35//51
f 4//52 9//52 30//52 31//52
f 8//53 3//53 29//53 28//53
f 37//54 36//54 88//54 87//54
f 5//55 37//55 87//55 46//55
f 15//56 13//56 36//56 37//56
f 12//57 15//57 37//57 5//57
f 53//58 81//58 85//58 56//58
f 40//59 46//59 47//59 57//59
f 56//60 85//60 83//60 55//60
f 55//61 83//61 79//61 52//61
f 51//62 76//62 75//62 59//62
f 42//63 80//63 82//63 43//63
f 58//64 89//64 88//64 44//64
f 73//65 71//65 72//65 74//65
f 59//66 71//66 73//66 69//66
f 69//67 73//67 74//67 66//67
f 76//68 78//68 77//68 75//68
f 71//69 77//69 78//69 72//69
f 59//70 75//70 77//70 71//70
f 80//71 84//71 86//71 82//71
f 83//72 85//72 86//72 84//72
f 79//73 83//73 84//73 80//73
f 82//74 86//74 85//74 81//74
f 43//75 82//75 81//75 53//75
f 52//76 79//76 80//76 42//76
f 90//77 87//77 88//77 89//77
f 47//78 46//78 87//78 90//78
f 60//79 90//79 89//79 58//79
f 57//80 47//80 90//80 60//80
