# Blender v2.79 (sub 0) OBJ File: 'soard.blend'
# www.blender.org
mtllib soard.mtl
o Cube_Cube.001
v 0.138007 -0.057118 -0.516254
v 0.138007 0.057118 -0.516254
v 0.142981 -0.057118 -0.665259
v 0.142981 0.057118 -0.665259
v 0.356620 -0.057118 -5.251773
v 0.356620 0.057118 -5.251773
v 0.366889 -0.057118 -5.831017
v 0.366889 0.057118 -5.831017
v 0.142981 0.000000 -0.665259
v 0.138007 0.000000 -0.516254
v 0.451485 0.000000 -5.247317
v 0.459517 0.000000 -5.840107
v 0.907534 -0.057118 -0.514130
v 0.907534 0.000000 -0.514130
v 0.908924 -0.057118 -0.652526
v 0.907534 0.057118 -0.514130
v 0.908924 0.000000 -0.652526
v 0.096832 0.057118 -0.088794
v 0.096832 -0.057118 -0.088794
v 0.096832 0.000000 -0.088794
v 0.908924 0.057118 -0.652526
v 0.077183 0.057118 0.025792
v 0.077183 0.000000 0.025792
v 0.077183 -0.057118 0.025792
v 0.049854 0.057118 0.483147
v 0.049854 0.000000 0.483147
v 0.049854 -0.057118 0.483147
v 1.297522 0.025736 -0.550022
v 1.297522 0.000000 -0.550022
v 1.298148 0.025736 -0.612379
v 1.298148 0.000000 -0.612379
v 1.297522 -0.025736 -0.550022
v 1.298148 -0.025736 -0.612379
v 0.075604 0.130872 0.617285
v 0.075604 0.000000 0.617285
v 0.075604 -0.130872 0.617285
v 0.075604 0.130872 0.782825
v 0.075604 0.000000 0.782825
v 0.075604 -0.130872 0.782825
v 0.000000 -0.057118 -0.400802
v 0.000000 0.057118 -0.400802
v 0.000000 -0.060410 -0.770709
v 0.000000 0.094023 -0.770709
v -0.138007 -0.057118 -0.516254
v -0.138007 0.057118 -0.516254
v -0.142981 -0.057118 -0.665259
v -0.142981 0.057118 -0.665259
v 0.000000 0.285227 -5.251773
v 0.000000 -0.201412 -5.251773
v -0.356620 -0.057118 -5.251773
v -0.356620 0.057118 -5.251773
v 0.000000 0.285227 -6.301441
v 0.000000 -0.201412 -6.301441
v -0.366889 -0.057118 -5.831017
v -0.366889 0.057118 -5.831017
v -0.142981 0.000000 -0.665259
v -0.138007 0.000000 -0.516254
v -0.451485 0.000000 -5.247317
v 0.000000 0.000000 -7.154867
v -0.459517 0.000000 -5.840107
v -0.907534 -0.057118 -0.514130
v -0.907534 0.000000 -0.514130
v -0.908924 -0.057118 -0.652526
v -0.907534 0.057118 -0.514130
v -0.908924 0.000000 -0.652526
v 0.000000 0.057118 -0.088794
v -0.096832 0.057118 -0.088794
v 0.000000 -0.057118 -0.088794
v -0.096832 -0.057118 -0.088794
v -0.096832 0.000000 -0.088794
v -0.908924 0.057118 -0.652526
v 0.000000 -0.057118 0.025792
v 0.000000 0.057118 0.025792
v -0.077183 0.057118 0.025792
v -0.077183 0.000000 0.025792
v -0.077183 -0.057118 0.025792
v 0.000000 -0.057118 0.483147
v 0.000000 0.057118 0.483147
v -0.049854 0.057118 0.483147
v -0.049854 0.000000 0.483147
v -0.049854 -0.057118 0.483147
v -1.297522 0.025736 -0.550022
v -1.297522 0.000000 -0.550022
v -1.298148 0.025736 -0.612379
v -1.298148 0.000000 -0.612379
v -1.297522 -0.025736 -0.550022
v -1.298148 -0.025736 -0.612379
v 0.000000 -0.130872 0.617285
v 0.000000 0.130872 0.617285
v -0.075604 0.130872 0.617285
v -0.075604 0.000000 0.617285
v -0.075604 -0.130872 0.617285
v 0.000000 -0.130872 0.782825
v 0.000000 0.130872 0.782825
v -0.075604 0.130872 0.782825
v -0.075604 0.000000 0.782825
v -0.075604 -0.130872 0.782825
vn 0.5318 0.8469 0.0034
vn 0.7677 -0.6393 0.0437
vn 0.2791 -0.9600 0.0215
vn 0.4635 0.8856 0.0296
vn 0.6613 0.7188 -0.2143
vn 0.5204 -0.8539 0.0081
vn 0.3692 -0.9294 0.0023
vn 0.5204 0.8539 0.0081
vn 0.5453 -0.8172 -0.1864
vn 0.7677 0.6393 0.0437
vn -0.5318 0.8469 0.0034
vn -0.7677 -0.6393 0.0437
vn -0.2791 -0.9600 0.0215
vn -0.4635 0.8856 0.0296
vn -0.6613 0.7188 -0.2143
vn -0.5204 -0.8539 0.0081
vn -0.3692 -0.9294 0.0023
vn -0.5204 0.8539 0.0081
vn -0.5453 -0.8172 -0.1864
vn -0.7677 0.6393 0.0437
vn 0.0119 -0.9999 0.0065
vn 0.1324 0.9886 0.0716
vn -0.0119 -0.9999 0.0065
vn -0.1324 0.9886 0.0716
vn 0.0000 1.0000 0.0000
vn 0.0166 0.0000 -0.9999
vn 0.0000 -1.0000 0.0000
vn 0.0803 0.9968 0.0008
vn 0.9954 0.0000 0.0959
vn 0.0916 0.0000 0.9958
vn -0.0028 0.0000 1.0000
vn 0.9856 0.0000 0.1690
vn 0.9821 0.0000 -0.1885
vn 0.9982 0.0000 0.0596
vn 0.9999 0.0000 0.0100
vn 0.1026 0.0000 -0.9947
vn 0.0803 -0.9968 0.0008
vn 0.0000 0.8763 -0.4818
vn 0.0000 -0.8763 -0.4818
vn 0.0000 0.0000 1.0000
vn 1.0000 0.0000 0.0000
vn -0.0166 0.0000 -0.9999
vn -0.0803 0.9968 0.0008
vn -0.9954 0.0000 0.0959
vn -0.0916 0.0000 0.9958
vn 0.0028 0.0000 1.0000
vn -0.9856 0.0000 0.1690
vn -0.9821 0.0000 -0.1885
vn -0.9982 0.0000 0.0596
vn -0.9999 0.0000 0.0100
vn -0.1026 0.0000 -0.9947
vn -0.0803 -0.9968 0.0008
vn -1.0000 0.0000 0.0000
usemtl soard_base
s off
f 48//1 6//1 8//1 52//1
f 9//2 3//2 5//2 11//2
f 3//3 42//3 49//3 5//3
f 43//4 4//4 6//4 48//4
f 59//5 52//5 8//5 12//5
f 11//6 5//6 7//6 12//6
f 5//7 49//7 53//7 7//7
f 6//8 11//8 12//8 8//8
f 53//9 59//9 12//9 7//9
f 4//10 9//10 11//10 6//10
f 48//11 52//11 55//11 51//11
f 56//12 58//12 50//12 46//12
f 46//13 50//13 49//13 42//13
f 43//14 48//14 51//14 47//14
f 59//15 60//15 55//15 52//15
f 58//16 60//16 54//16 50//16
f 50//17 54//17 53//17 49//17
f 51//18 55//18 60//18 58//18
f 53//19 54//19 60//19 59//19
f 47//20 51//20 58//20 56//20
usemtl monsho
f 42//21 3//21 1//21 40//21
f 4//22 43//22 41//22 2//22
f 42//23 40//23 44//23 46//23
f 47//24 45//24 41//24 43//24
usemtl tsuka
f 4//25 2//25 16//25 21//25
f 9//26 4//26 21//26 17//26
f 68//27 19//27 24//27 72//27
f 21//28 16//28 28//28 30//28
f 10//29 2//29 18//29 20//29
f 40//27 1//27 19//27 68//27
f 1//29 10//29 20//29 19//29
f 2//25 41//25 66//25 18//25
f 16//30 14//30 29//30 28//30
f 2//31 10//31 14//31 16//31
f 3//26 9//26 17//26 15//26
f 10//31 1//31 13//31 14//31
f 1//27 3//27 15//27 13//27
f 22//25 73//25 78//25 25//25
f 19//32 20//32 23//32 24//32
f 18//25 66//25 73//25 22//25
f 20//32 18//32 22//32 23//32
f 27//33 26//33 35//33 36//33
f 72//27 24//27 27//27 77//27
f 23//34 22//34 25//34 26//34
f 24//34 23//34 26//34 27//34
f 31//35 30//35 28//35 29//35
f 33//35 31//35 29//35 32//35
f 17//36 21//36 30//36 31//36
f 13//37 15//37 33//37 32//37
f 14//30 13//30 32//30 29//30
f 15//36 17//36 31//36 33//36
f 88//27 36//27 39//27 93//27
f 25//38 78//38 89//38 34//38
f 77//39 27//39 36//39 88//39
f 26//33 25//33 34//33 35//33
f 38//40 37//40 94//40 93//40 39//40
f 35//41 34//41 37//41 38//41
f 36//41 35//41 38//41 39//41
f 34//25 89//25 94//25 37//25
f 47//25 71//25 64//25 45//25
f 56//42 65//42 71//42 47//42
f 68//27 72//27 76//27 69//27
f 71//43 84//43 82//43 64//43
f 57//44 70//44 67//44 45//44
f 40//27 68//27 69//27 44//27
f 44//44 69//44 70//44 57//44
f 45//25 67//25 66//25 41//25
f 64//45 82//45 83//45 62//45
f 45//46 64//46 62//46 57//46
f 46//42 63//42 65//42 56//42
f 57//46 62//46 61//46 44//46
f 44//27 61//27 63//27 46//27
f 74//25 79//25 78//25 73//25
f 69//47 76//47 75//47 70//47
f 67//25 74//25 73//25 66//25
f 70//47 75//47 74//47 67//47
f 81//48 92//48 91//48 80//48
f 72//27 77//27 81//27 76//27
f 75//49 80//49 79//49 74//49
f 76//49 81//49 80//49 75//49
f 85//50 83//50 82//50 84//50
f 87//50 86//50 83//50 85//50
f 65//51 85//51 84//51 71//51
f 61//52 86//52 87//52 63//52
f 62//45 83//45 86//45 61//45
f 63//51 87//51 85//51 65//51
f 88//27 93//27 97//27 92//27
f 79//38 90//38 89//38 78//38
f 77//39 88//39 92//39 81//39
f 80//48 91//48 90//48 79//48
f 96//40 97//40 93//40 94//40 95//40
f 91//53 96//53 95//53 90//53
f 92//53 97//53 96//53 91//53
f 90//25 95//25 94//25 89//25