# Blender v2.79 (sub 0) OBJ File: 'stage_base.blend'
# www.blender.org
mtllib stage_base.mtl
o Sphere
v 0.000000 0.000000 -4.037868
v 0.389294 -0.786525 -3.952634
v 0.329377 -2.253190 -3.344068
v -0.019308 -3.370347 -2.252413
v -0.026528 -3.736655 -1.551047
v -0.409775 -3.970181 -0.713506
v 1.175416 0.000000 -3.874828
v 0.849262 -2.850954 -2.746977
v 1.878712 -0.788354 -3.513694
v 1.761473 -1.555572 -3.295482
v 1.589200 -2.253459 -2.973181
v 2.517308 0.000000 -3.179451
v 1.812278 -2.861808 -2.208266
v 1.088763 -3.740484 -1.141769
v 3.357365 0.000000 -2.243318
v 3.118350 -0.787808 -2.468930
v 2.850879 -1.555396 -2.424557
v 2.634274 -2.235175 -2.110551
v 1.405020 -3.371172 -1.785799
v 2.527622 -2.861987 -1.351041
v 3.859474 0.000000 -1.245075
v 3.825799 -0.787808 -1.087652
v 3.561706 -1.555397 -1.149015
v 3.219165 -2.272867 -0.945817
v 2.158682 -3.355272 -0.665736
v 0.635219 -3.963656 -0.521309
v 4.040341 0.149123 0.008331
v 3.950711 -0.788345 0.458666
v 3.730297 -1.555397 0.301455
v 3.342960 -2.253025 0.388559
v 2.843638 -2.897062 0.031253
v 3.900763 0.000000 1.108968
v 3.658823 -0.787749 1.515536
v 2.191729 -3.378764 0.470489
v 3.308130 -1.582527 1.733333
v 2.940448 -2.272475 1.604890
v 2.547817 -2.851014 1.321813
v 1.545754 -3.745559 0.259735
v 0.761623 -3.961169 0.253186
v 3.179451 0.000000 2.517310
v 3.030075 -0.788345 2.576265
v 2.374015 -2.243319 2.374017
v 2.200214 -0.787749 3.292855
v 2.411864 -1.530285 2.872289
v 1.853606 -2.861696 2.179537
v 1.398984 -3.394933 1.741673
v 0.000000 -4.037868 0.000001
v 1.974098 0.000000 3.542414
v 1.088120 -0.788345 3.825505
v 1.427602 -1.545225 3.446537
v 1.534175 -2.253025 2.995441
v 0.787749 0.000000 3.960283
v 0.878437 -2.861696 2.722974
v 0.041372 -3.358897 2.266167
v 0.776268 -3.737463 1.358773
v -0.000000 -0.787749 3.960282
v 0.432082 -1.555396 3.717432
v 0.271088 -2.253025 3.354530
v -0.326658 0.000000 4.042159
v -0.600349 -3.748389 1.449372
v 0.214237 -3.963716 0.788282
v -1.545226 0.000000 3.730505
v -1.220597 -0.788345 3.785318
v -1.023407 -1.555397 3.599810
v -1.033270 -2.253025 3.202922
v -0.489216 -2.878207 2.824991
v -2.200214 -0.787749 3.292854
v -1.980392 -1.913814 2.979063
v -0.723077 -3.969526 0.386494
v -2.517308 0.000000 3.179452
v -2.634272 -2.235176 2.110551
v -1.788217 -2.873897 2.221018
v -1.205908 -3.367806 1.905740
v -3.542412 0.000000 1.974098
v -3.118349 -0.787808 2.468931
v -2.850878 -1.555396 2.424558
v -2.819116 -2.577868 1.384579
v -1.964311 -3.360309 1.094663
v -4.028216 0.000000 0.468207
v -3.825797 -0.787808 1.087654
v -3.561706 -1.555396 1.149016
v -3.960280 -0.787749 0.000000
v -3.730503 -1.545225 0.000001
v -3.354528 -2.253025 0.271088
v -2.795094 -2.897062 0.524116
v -1.509701 -3.737463 0.411893
v -3.960280 0.000000 -0.787748
v -3.785316 -0.788345 -1.220597
v -2.254530 -3.367806 0.056097
v -3.599808 -1.555397 -1.023407
v -3.202920 -2.253024 -1.033270
v -2.740298 -2.864075 -0.818597
v -1.987718 -3.366203 -1.036550
v -3.571061 0.000000 -1.908772
v -3.292851 -0.787749 -2.200213
v -3.101800 -1.545225 -2.072555
v -1.425576 -3.736141 -0.603631
v -2.563696 -2.253024 -2.180321
v -2.240988 -2.851015 -1.793466
v -0.893998 -3.730500 -1.282160
v -2.627255 0.000000 -3.089217
v -2.468929 -0.787808 -3.118347
v -2.424558 -1.555396 -2.850877
v -1.865250 -2.243319 -2.791544
v -1.367630 -2.873896 -2.502043
v -1.267431 -3.370347 -1.862082
v -1.179333 0.000000 -3.887719
v -1.088123 -0.788345 -3.825499
v -1.149017 -1.555399 -3.561702
v -0.920314 -2.253025 -3.237183
v 0.367474 -1.555850 -3.730977
v -0.292384 -2.864077 -2.844966
v 0.417225 -0.815790 -4.236235
v 1.999158 -0.813599 -3.742317
v 2.991692 -0.814401 -2.991690
v 3.980687 0.171029 -1.664902
v 3.753929 -0.814982 -2.007101
v 4.235337 -0.813935 -0.343714
v 4.149594 -0.814402 0.825407
v 3.741769 -0.814401 2.000019
v 2.752847 -0.814401 3.236893
v 1.619091 -0.814402 3.908834
v 0.841909 0.170652 4.233346
v 0.416881 -0.813599 4.222297
v -0.825406 -0.814402 4.149595
v -1.937463 -0.814973 3.781728
v -3.236891 -0.814401 2.752847
v -4.073364 -0.814982 1.236179
v -4.220986 -0.813590 -0.489590
v -3.908830 -0.814402 -1.619090
v -3.279686 -0.814401 -2.691569
v -2.350554 -0.814401 -3.517854
v -1.231649 -0.813021 -4.060180
v 0.326651 0.199623 -4.042155
v 1.545226 0.199587 -3.730503
v 2.626896 0.199079 -3.089531
v 3.357365 0.199587 -2.243318
v 2.409401 0.171382 -3.579477
v 3.900759 0.199623 -1.108964
v -4.029775 0.200391 -0.395939
v -4.234776 0.171382 -0.827368
v -2.409505 0.171029 3.579393
v -1.973683 0.199079 3.542649
v 3.859625 0.199079 1.244624
v -2.855204 0.199587 2.855205
v -3.061381 0.170466 3.040653
v 3.357365 0.199587 2.243321
v 2.517685 0.199079 3.179159
v 1.110270 0.200072 3.900409
v -2.748322 0.171025 -3.348840
v -2.518059 0.200400 -3.178866
v -1.651896 0.170652 -3.987635
v -0.467262 0.200400 4.028338
v -0.856150 0.170466 4.229023
v -1.664783 0.171382 3.980751
v 0.424924 0.171974 -4.311346
v 1.651748 0.169906 -3.987667
v -3.609247 0.199079 1.849086
v -3.960281 0.199587 0.787750
v -3.992034 0.171028 1.637507
v -4.311347 0.171024 0.424631
v -3.583170 0.199071 -1.914697
v 3.991995 0.171382 1.637637
v 3.588807 0.169905 2.397966
v -1.175421 0.199624 -3.874820
v 3.348843 0.171025 -2.748322
v 4.229006 0.171029 -0.856315
v 4.314806 0.171029 -0.014825
v 4.234791 0.171029 0.827236
v 3.040648 0.171382 3.061428
v 2.041936 0.171973 3.820834
v -0.014826 0.171029 4.314806
v -3.595803 0.171382 2.384969
v -3.991934 0.171122 -1.637759
v -3.588746 0.170652 -2.398105
v -0.827368 0.171382 -4.234774
vn 0.0709 -0.6734 -0.7359
vn 0.1784 -0.8185 -0.5462
vn 0.0263 -0.9937 -0.1094
vn -0.0738 -0.9973 0.0056
vn 0.3522 -0.6798 -0.6433
vn 0.5686 -0.6719 -0.4746
vn 0.4912 -0.8105 -0.3190
vn 0.6963 -0.6957 -0.1768
vn 0.3863 -0.9133 -0.1293
vn 0.5792 -0.8145 -0.0337
vn 0.2652 -0.9633 -0.0402
vn 0.1048 -0.9944 -0.0139
vn -0.0679 -0.9971 0.0348
vn 0.4953 -0.8158 0.2985
vn 0.3452 -0.9051 0.2483
vn 0.0759 -0.9944 0.0729
vn 0.7223 -0.3683 0.5853
vn 0.5158 -0.5090 0.6891
vn 0.3591 -0.6752 0.6443
vn 0.2500 -0.3415 0.9060
vn 0.1886 -0.8175 0.5442
vn 0.0341 -0.9122 0.4082
vn 0.0622 -0.6881 0.7230
vn -0.0850 -0.9735 0.2124
vn -0.0384 -0.9938 0.1039
vn 0.0771 -0.9970 0.0115
vn -0.1547 -0.8168 0.5557
vn -0.6031 -0.4848 0.6334
vn -0.5713 -0.6764 0.4648
vn -0.5637 -0.8097 0.1634
vn -0.8115 -0.5355 0.2340
vn 0.0374 -0.9930 -0.1117
vn -0.4301 -0.9020 -0.0368
vn -0.5775 -0.8039 -0.1422
vn -0.2307 -0.9708 -0.0651
vn -0.1104 -0.9934 -0.0308
vn -0.4543 -0.7998 -0.3924
vn -0.5614 -0.5125 -0.6497
vn -0.2183 -0.6760 -0.7038
vn 0.0620 -0.9965 0.0557
vn 0.0000 1.0000 -0.0000
vn -0.6843 0.7291 0.0120
vn 0.1096 -0.9935 0.0310
vn -0.0710 -0.9966 -0.0427
vn 0.0657 -0.7435 -0.6655
vn 0.2569 -0.4684 -0.8453
vn 0.1521 -0.8821 -0.4458
vn 0.2299 -0.5804 -0.7812
vn 0.0734 -0.9630 -0.2595
vn 0.5581 -0.4726 -0.6821
vn 0.3202 -0.7432 -0.5874
vn 0.1115 -0.9937 -0.0117
vn 0.5213 -0.5873 -0.6191
vn 0.6099 -0.2797 -0.7414
vn 0.7780 -0.4669 -0.4203
vn 0.5049 -0.7533 -0.4215
vn 0.8449 -0.2876 -0.4510
vn 0.7187 -0.5824 -0.3798
vn 0.4328 -0.8572 -0.2790
vn 0.0798 -0.9928 0.0897
vn 0.9532 -0.2876 -0.0934
vn 0.3174 -0.9422 -0.1069
vn 0.6614 -0.7305 -0.1698
vn 0.8060 -0.5882 -0.0660
vn 0.5015 -0.8646 -0.0325
vn 0.8777 -0.4709 -0.0888
vn 0.9106 -0.3230 0.2578
vn 0.2778 -0.2875 -0.9166
vn 0.6593 -0.7307 0.1772
vn 0.8461 -0.4680 0.2552
vn 0.7336 -0.6459 0.2112
vn 0.0898 -0.9948 -0.0477
vn 0.2317 -0.9541 0.1900
vn 0.8366 -0.2333 0.4957
vn 0.4158 -0.8749 0.2482
vn 0.5076 -0.7624 0.4014
vn 0.6993 -0.4502 0.5553
vn 0.5998 -0.6460 0.4722
vn 0.0883 -0.9949 0.0480
vn 0.6351 -0.2356 0.7356
vn 0.4788 -0.6035 0.6376
vn -0.0307 -0.9929 -0.1151
vn 0.4490 -0.2863 0.8464
vn 0.2357 -0.4939 0.8370
vn 0.4606 -0.4267 0.7783
vn 0.3222 -0.7495 0.5782
vn 0.0683 -0.9943 -0.0820
vn 0.2214 -0.5871 0.7787
vn 0.1674 -0.8543 0.4920
vn 0.0300 -0.9389 0.3428
vn -0.0858 -0.4684 0.8794
vn 0.1193 -0.2378 0.9640
vn 0.0597 -0.7280 0.6829
vn -0.0558 -0.9960 0.0692
vn -0.0945 -0.5740 0.8134
vn -0.1034 -0.3065 0.9462
vn -0.3488 -0.6475 0.6776
vn -0.1428 -0.8451 0.5152
vn -0.4278 -0.3174 0.8463
vn -0.2887 -0.7333 0.6156
vn -0.0544 -0.9966 -0.0621
vn -0.6195 -0.2969 0.7267
vn -0.3565 -0.4582 0.8142
vn -0.5044 -0.7612 0.4076
vn -0.5252 -0.5896 0.6136
vn -0.3308 -0.8982 0.2895
vn -0.8449 -0.2876 0.4510
vn -0.2689 -0.9363 0.2259
vn -0.7791 -0.4587 0.4272
vn 0.0398 -0.9961 0.0789
vn -0.6013 -0.7544 0.2631
vn -0.4944 -0.8572 0.1443
vn -0.9452 -0.3010 0.1268
vn -0.7772 -0.5967 0.1996
vn -0.9525 -0.2761 -0.1284
vn -0.8953 -0.4267 0.1278
vn -0.6782 -0.7334 -0.0457
vn -0.2836 -0.9586 -0.0247
vn -0.8635 -0.4939 -0.1026
vn -0.7612 -0.6450 -0.0674
vn -0.4805 -0.8689 -0.1186
vn -0.8563 -0.3009 -0.4197
vn -0.7767 -0.4829 -0.4044
vn -0.6837 -0.6286 -0.3707
vn -0.3616 -0.8821 -0.3018
vn -0.5882 -0.7464 -0.3113
vn -0.6838 -0.4301 -0.5894
vn -0.7206 -0.2760 -0.6360
vn -0.2403 -0.9507 -0.1961
vn -0.4927 -0.6485 -0.5803
vn -0.4132 -0.4537 -0.7896
vn -0.4327 -0.7439 -0.5093
vn -0.4511 -0.2876 -0.8449
vn -0.3454 -0.6028 -0.7193
vn -0.0106 -0.9966 -0.0814
vn -0.1819 -0.7890 -0.5868
vn -0.1030 -0.9449 -0.3106
vn -0.1448 -0.8779 -0.4564
vn -0.0940 -0.2954 -0.9508
vn -0.0690 -0.5881 -0.8058
vn -0.0882 -0.4621 -0.8824
vn -0.0960 -0.9949 -0.0298
vn 0.0095 -0.9948 0.1014
vn 0.0102 -0.9954 -0.0957
vn -0.0960 -0.9926 0.0738
vn -0.1029 -0.9913 -0.0823
vn -0.0294 -0.9948 0.0973
vn -0.1355 -0.9900 0.0399
vn 0.0374 -0.9964 -0.0756
vn -0.0462 -0.9952 -0.0867
vn -0.1140 -0.9934 -0.0088
vn -0.9849 0.1162 0.1283
vn -0.6058 0.3544 -0.7123
vn 0.7835 -0.1342 -0.6067
vn 0.5048 -0.1404 0.8517
vn -0.9822 -0.1680 0.0839
vn -0.6581 -0.1387 -0.7400
vn 0.9708 0.2340 0.0525
vn -0.2409 -0.2347 0.9418
vn -0.0870 0.9962 0.0058
vn -0.1249 0.9921 -0.0074
vn -0.0341 0.9932 -0.1109
vn 0.1107 0.9933 0.0327
vn 0.0659 0.9962 -0.0575
vn 0.1133 0.9930 -0.0348
vn 0.0359 0.9970 0.0688
vn -0.3221 0.2455 -0.9143
vn 0.4795 0.2338 -0.8458
vn 0.9694 -0.2386 -0.0571
vn -0.1334 0.2390 0.9618
vn -0.8964 -0.0571 0.4395
vn 0.2779 -0.1073 -0.9546
vn 0.6311 -0.0869 -0.7708
vn 0.4737 -0.0520 -0.8791
vn 0.9509 -0.1306 -0.2806
vn 0.8636 -0.0238 -0.5036
vn 0.9920 -0.0966 0.0817
vn 0.9938 -0.0463 -0.1013
vn 0.9451 -0.1042 0.3098
vn 0.7715 -0.1233 0.6241
vn 0.8823 -0.0520 0.4678
vn 0.2882 -0.0868 0.9536
vn 0.6049 -0.0350 0.7955
vn -0.0754 -0.1043 0.9917
vn 0.0945 -0.0520 0.9942
vn -0.3040 -0.0966 0.9478
vn -0.6212 -0.1270 0.7733
vn -0.4739 -0.0464 0.8794
vn -0.8707 -0.1306 0.4741
vn -0.7743 -0.0464 0.6311
vn -0.9569 -0.0966 -0.2737
vn -0.9668 -0.0239 0.2545
vn -0.9975 -0.0349 -0.0610
vn -0.8665 -0.1044 -0.4881
vn -0.4687 -0.0869 -0.8791
vn -0.7487 -0.0377 -0.6618
vn -0.0863 -0.1074 -0.9905
vn -0.2867 -0.0519 -0.9566
vn 0.5979 -0.2336 -0.7668
vn 0.4718 0.0356 0.8810
vn 0.2799 -0.0841 -0.9563
vn 0.9404 0.1470 -0.3065
vn -0.8817 0.1470 -0.4482
vn 0.0013 0.9997 0.0256
vn 0.0897 0.9948 -0.0476
vn 0.0744 0.9925 0.0971
vn -0.1026 0.9933 0.0539
vn -0.0619 0.9951 0.0773
vn -0.1066 0.9927 -0.0571
vn 0.0823 0.9923 -0.0927
vn -0.0473 0.9951 -0.0872
vn -0.0276 0.9959 0.0864
vn 0.0263 0.9948 -0.0981
vn -0.1000 0.9945 0.0297
vn 0.0880 0.9951 0.0458
vn 0.0471 0.9954 -0.0834
vn -0.0086 0.9955 -0.0945
vn 0.0402 0.9920 0.1200
vn 0.0727 0.9954 0.0624
vn -0.0132 0.9924 0.1225
vn -0.0859 0.9960 -0.0261
vn -0.0553 0.9933 0.1018
vn -0.0075 0.9997 -0.0250
vn -0.0750 0.9955 0.0584
vn -0.0727 0.9954 -0.0618
vn 0.0082 0.9957 0.0921
vn -0.4818 0.0659 0.8738
vn 0.1168 -0.1179 0.9861
vn -0.7491 0.0570 0.6600
vn 0.9489 -0.0964 0.3005
vn -0.7214 -0.2457 -0.6474
vn -0.4268 -0.3534 -0.8324
vn 0.7764 0.0843 -0.6246
vn -0.9843 -0.1083 -0.1395
vn 0.7721 -0.0359 0.6345
vn -0.0769 -0.1466 -0.9862
usemtl stage_base
s off
f 3//1 8//1 112//1
f 8//2 19//2 4//2
f 47//3 6//3 26//3
f 22//4 118//4 28//4
f 8//5 11//5 13//5
f 18//6 20//6 13//6
f 20//7 25//7 19//7
f 20//8 24//8 31//8
f 25//9 38//9 14//9
f 25//10 31//10 34//10
f 26//11 38//11 39//11
f 47//12 26//12 39//12
f 16//13 117//13 22//13
f 34//14 37//14 46//14
f 46//15 55//15 38//15
f 47//16 39//16 61//16
f 41//17 44//17 35//17
f 42//18 44//18 51//18
f 51//19 53//19 45//19
f 49//20 57//20 50//20
f 53//21 54//21 46//21
f 54//22 60//22 55//22
f 58//23 66//23 53//23
f 61//24 60//24 69//24
f 47//25 61//25 69//25
f 82//26 129//26 88//26
f 66//27 73//27 54//27
f 68//28 76//28 71//28
f 71//29 77//29 72//29
f 85//30 89//30 78//30
f 77//31 81//31 84//31
f 63//32 125//32 126//32
f 86//33 89//33 97//33
f 92//34 93//34 89//34
f 97//35 6//35 69//35
f 47//36 69//36 6//36
f 99//37 106//37 93//37
f 98//38 103//38 104//38
f 110//39 112//39 105//39
f 95//40 131//40 102//40
f 7//41 48//41 12//41
f 12//41 48//41 40//41
f 12//41 40//41 15//41
f 21//42 32//42 27//42
f 88//43 129//43 130//43
f 33//44 120//44 41//44
f 112//45 8//45 4//45
f 11//46 3//46 111//46 10//46
f 14//47 5//47 4//47 19//47
f 8//48 3//48 11//48
f 26//49 6//49 5//49 14//49
f 17//50 18//50 11//50 10//50
f 8//51 13//51 19//51
f 129//52 82//52 80//52 128//52
f 11//53 18//53 13//53
f 17//54 10//54 9//54 16//54
f 23//55 24//55 18//55 17//55
f 19//56 13//56 20//56
f 23//57 17//57 16//57 22//57
f 20//58 18//58 24//58
f 14//59 19//59 25//59
f 102//60 131//60 132//60
f 29//61 23//61 22//61 28//61
f 26//62 14//62 38//62
f 20//63 31//63 25//63
f 24//64 30//64 31//64
f 38//65 25//65 34//65
f 29//66 30//66 24//66 23//66
f 35//67 29//67 28//67 33//67
f 9//68 10//68 111//68 2//68
f 31//69 37//69 34//69
f 35//70 36//70 30//70 29//70
f 37//71 31//71 30//71 36//71
f 128//72 80//72 75//72 127//72
f 55//73 61//73 39//73 38//73
f 33//74 41//74 35//74
f 34//75 46//75 38//75
f 46//76 37//76 45//76
f 42//77 36//77 35//77 44//77
f 45//78 37//78 36//78 42//78
f 130//79 131//79 95//79 88//79
f 41//80 43//80 44//80
f 42//81 51//81 45//81
f 49//82 122//82 124//82
f 50//83 44//83 43//83 49//83
f 57//84 58//84 51//84 50//84
f 51//85 44//85 50//85
f 46//86 45//86 53//86
f 127//87 75//87 67//87 126//87
f 51//88 58//88 53//88
f 46//89 54//89 55//89
f 61//90 55//90 60//90
f 64//91 65//91 58//91 57//91
f 49//92 56//92 57//92
f 54//93 53//93 66//93
f 115//94 16//94 9//94 114//94
f 58//95 65//95 66//95
f 64//96 57//96 56//96 63//96
f 72//97 66//97 65//97 68//97
f 60//98 54//98 73//98
f 68//99 64//99 63//99 67//99
f 73//100 66//100 72//100
f 43//101 41//101 121//101
f 76//102 68//102 67//102 75//102
f 65//103 64//103 68//103
f 78//104 73//104 72//104 77//104
f 68//105 71//105 72//105
f 78//106 86//106 60//106 73//106
f 81//107 76//107 75//107 80//107
f 60//108 86//108 69//108
f 81//109 77//109 71//109 76//109
f 133//110 108//110 102//110 132//110
f 77//111 85//111 78//111
f 86//112 78//112 89//112
f 83//113 81//113 80//113 82//113
f 77//114 84//114 85//114
f 90//115 83//115 82//115 88//115
f 84//116 81//116 83//116
f 85//117 92//117 89//117
f 86//118 97//118 69//118
f 90//119 91//119 84//119 83//119
f 92//120 85//120 84//120 91//120
f 97//121 89//121 93//121
f 96//122 90//122 88//122 95//122
f 96//123 98//123 91//123 90//123
f 99//124 92//124 91//124 98//124
f 100//125 97//125 93//125 106//125
f 92//126 99//126 93//126
f 98//127 96//127 103//127
f 103//128 96//128 95//128 102//128
f 97//129 100//129 6//129
f 105//130 99//130 98//130 104//130
f 109//131 110//131 104//131 103//131
f 106//132 99//132 105//132
f 109//133 103//133 102//133 108//133
f 104//134 110//134 105//134
f 56//135 49//135 124//135
f 4//136 106//136 105//136 112//136
f 6//137 100//137 5//137
f 5//138 100//138 106//138 4//138
f 111//139 109//139 108//139 2//139
f 110//140 3//140 112//140
f 52//41 7//41 1//41 59//41
f 111//141 3//141 110//141 109//141
f 107//41 101//41 70//41 62//41
f 59//41 1//41 107//41
f 62//41 59//41 107//41
f 94//41 74//41 70//41 101//41
f 87//41 79//41 74//41 94//41
f 21//41 15//41 40//41 32//41
f 7//41 52//41 48//41
f 119//142 120//142 33//142 28//142
f 133//143 113//143 2//143 108//143
f 125//144 63//144 56//144 124//144
f 16//145 115//145 117//145
f 41//146 120//146 121//146
f 114//147 9//147 2//147 113//147
f 22//148 117//148 118//148
f 67//149 63//149 126//149
f 122//150 49//150 43//150 121//150
f 28//151 118//151 119//151
usemtl stage_fuchi
f 27//152 139//152 21//152
f 48//153 148//153 40//153
f 166//154 117//154 115//154
f 171//155 122//155 121//155
f 128//156 161//156 129//156
f 150//157 132//157 131//157
f 87//158 140//158 79//158
f 7//159 135//159 134//159
f 140//160 161//160 159//160
f 140//161 141//161 161//161
f 165//162 176//162 152//162
f 144//163 163//163 169//163
f 137//164 166//164 136//164
f 139//165 167//165 116//165
f 149//166 171//166 148//166
f 52//167 149//167 48//167
f 70//168 143//168 62//168
f 79//169 140//169 159//169
f 1//170 7//170 134//170
f 137//171 15//171 21//171 139//171
f 157//172 114//172 113//172 156//172
f 115//173 114//173 138//173 166//173
f 157//174 138//174 114//174
f 167//175 118//175 117//175 116//175
f 117//176 166//176 116//176
f 169//177 119//177 118//177 168//177
f 118//178 167//178 168//178
f 163//179 120//179 119//179 169//179
f 121//180 120//180 164//180 170//180
f 120//181 163//181 164//181
f 123//182 124//182 122//182 171//182
f 170//183 171//183 121//183
f 125//184 124//184 172//184 154//184
f 123//185 172//185 124//185
f 126//186 125//186 154//186 155//186
f 127//187 126//187 142//187 146//187
f 155//188 142//188 126//188
f 128//189 127//189 173//189 160//189
f 146//190 173//190 127//190
f 174//191 130//191 129//191 141//191
f 160//192 161//192 128//192
f 129//193 161//193 141//193
f 175//194 131//194 130//194 174//194
f 152//195 133//195 132//195 150//195
f 175//196 150//196 131//196
f 113//197 133//197 176//197 156//197
f 152//198 176//198 133//198
f 70//199 145//199 143//199
f 151//200 101//200 107//200 165//200
f 153//201 59//201 62//201 143//201
f 158//202 74//202 79//202 159//202
f 144//203 32//203 40//203 147//203
f 168//204 167//204 139//204 27//204
f 116//205 166//205 137//205 139//205
f 148//206 171//206 170//206
f 158//207 160//207 173//207
f 142//208 143//208 145//208 146//208
f 162//209 175//209 174//209
f 136//210 166//210 138//210
f 152//211 150//211 151//211 165//211
f 155//212 154//212 153//212 143//212
f 156//213 134//213 135//213 157//213
f 160//214 158//214 159//214 161//214
f 163//215 144//215 147//215 164//215
f 138//216 157//216 135//216 136//216
f 176//217 165//217 134//217 156//217
f 149//218 123//218 171//218
f 170//219 164//219 147//219 148//219
f 153//220 154//220 172//220
f 141//221 140//221 162//221 174//221
f 143//222 142//222 155//222
f 169//223 168//223 27//223 144//223
f 173//224 146//224 145//224 158//224
f 175//225 162//225 151//225 150//225
f 123//226 149//226 153//226 172//226
f 135//227 7//227 12//227 136//227
f 134//228 165//228 107//228 1//228
f 136//229 12//229 15//229 137//229
f 162//230 140//230 87//230 94//230
f 40//231 148//231 147//231
f 48//232 149//232 148//232
f 145//233 70//233 74//233 158//233
f 32//234 144//234 27//234
f 162//235 94//235 101//235 151//235
f 149//236 52//236 59//236 153//236
