# Blender v2.79 (sub 0) OBJ File: 'stage_01_seaside.blend'
# www.blender.org
mtllib stage_01_seaside.mtl
o Cube
v 40.454765 -1.341992 -28.935444
v 40.454765 -1.341992 35.961727
v -13.538790 -1.341992 35.961723
v -13.538780 -1.341992 -28.935452
v 40.454773 0.840158 -28.935436
v 40.454750 0.840158 35.961735
v -13.538795 -0.275681 35.961720
v -13.538788 -0.275681 -28.935448
v -43.153126 -1.342007 35.961723
v -43.153114 -1.342007 -28.935453
v -43.153126 -0.275696 35.961720
v -43.153118 -0.275696 -28.935450
v -6.049994 -1.341992 -28.935450
v -6.050000 -1.341992 35.961723
v -6.049995 0.840158 -28.935442
v -6.050007 0.840158 35.961723
vt 0.938169 0.055340
vt 0.899146 0.059616
vt 0.899942 0.051589
vt 0.936780 0.047416
vt 0.994938 0.299359
vt 0.994938 0.537035
vt 0.366510 0.537035
vt 0.366510 0.299359
vt 0.934904 0.084322
vt 0.956293 0.121162
vt 0.881950 0.114361
vt 0.908299 0.085277
vt 0.858712 0.061274
vt 0.880584 0.045244
vt 0.886594 0.027566
vt 0.902919 0.043113
vt 0.983563 0.056280
vt 0.954942 0.040572
vt 0.947765 0.027566
vt 0.933714 0.040811
vt 0.651070 0.930968
vt 0.998775 0.930968
vt 0.998775 0.996589
vt 0.651070 0.996589
vt 0.000143 0.652152
vt 0.274737 0.652152
vt 0.274737 0.999857
vt 0.000143 0.999857
vn 0.0000 -1.0000 -0.0000
vn -0.1474 0.9891 -0.0000
vn 1.0000 0.0000 0.0000
vn 0.0000 0.0000 1.0000
vn 0.0000 0.0000 -1.0000
vn -1.0000 -0.0000 -0.0000
vn -0.0000 1.0000 -0.0000
usemtl seaside_stage_base
s off
f 13/1/1 14/2/1 3/3/1 4/4/1
f 15/5/2 8/6/2 7/7/2 16/8/2
f 1/9/3 5/10/3 6/11/3 2/12/3
f 14/2/4 16/13/4 7/14/4 3/3/4
f 3/3/4 7/14/4 11/15/4 9/16/4
f 15/17/5 13/1/5 4/4/5 8/18/5
f 9/16/6 11/15/6 12/19/6 10/20/6
f 7/21/7 8/22/7 12/23/7 11/24/7
f 8/18/5 4/4/5 10/20/5 12/19/5
f 4/4/1 3/3/1 9/16/1 10/20/1
f 5/10/5 1/9/5 13/1/5 15/17/5
f 2/12/4 6/11/4 16/13/4 14/2/4
f 5/25/7 15/26/7 16/27/7 6/28/7
f 1/9/1 2/12/1 14/2/1 13/1/1
