# Blender v2.79 (sub 0) OBJ File: 'shielde.blend'
# www.blender.org
mtllib shielde.mtl
o Cube
v 0.689403 -1.570206 0.045605
v 0.646172 -1.570206 -0.119430
v 0.689403 1.658675 0.045605
v 0.646171 1.658675 -0.119430
v 1.259336 -1.570206 -0.171946
v 1.198640 -1.570206 -0.331387
v 1.259336 1.658675 -0.171946
v 1.198639 1.658675 -0.331387
v 0.689403 0.044234 0.003557
v 0.646171 0.044234 -0.119430
v 1.259336 0.044234 -0.171946
v 1.198639 0.044234 -0.331387
v 0.689403 0.851455 0.003557
v 0.646171 0.851455 -0.119430
v 1.259336 0.851455 -0.171946
v 1.198639 0.851455 -0.331387
v 0.689403 1.255065 0.003557
v 0.646171 1.255065 -0.119430
v 1.259336 1.255065 -0.171946
v 1.198639 1.255065 -0.331387
v 0.689403 -0.762986 0.003557
v 0.646172 -0.762986 -0.119430
v 1.259336 -0.762986 -0.171946
v 1.198639 -0.762986 -0.331387
v 0.689403 -1.166596 0.003557
v 0.646172 -1.166596 -0.119430
v 1.259336 -1.166596 -0.171946
v 1.198639 -1.166596 -0.331387
v 0.974370 1.658675 -0.063170
v 0.974369 -1.570206 -0.063170
v 0.922406 -1.570206 -0.225409
v 0.922405 1.658675 -0.225408
v 0.922405 0.044234 -0.225408
v 0.974370 0.044234 -0.063170
v 0.922405 0.851455 -0.225408
v 0.974370 0.851455 -0.063170
v 0.922405 1.255065 -0.225408
v 0.974370 1.255065 -0.063170
v 0.974369 -0.762986 -0.063170
v 0.922405 -0.762986 -0.225408
v 0.974369 -1.166596 -0.063170
v 0.922405 -1.166596 -0.225409
v 0.231275 -1.570206 0.065453
v 0.209659 -1.570206 -0.102366
v 0.231275 1.658675 0.065453
v 0.209659 1.658675 -0.102366
v 0.231275 0.044234 0.065453
v 0.209659 0.044234 -0.102366
v 0.231275 0.851455 0.065453
v 0.209659 0.851455 -0.102366
v 0.231275 1.255065 0.065453
v 0.209659 1.255065 -0.102366
v 0.209659 -0.762986 -0.102366
v 0.231275 -0.762986 0.065453
v 0.209659 -1.166596 -0.102366
v 0.231275 -1.166596 0.065453
v 0.689403 -0.196601 0.003557
v 0.646171 -0.196601 -0.119430
v 1.259336 -0.196601 -0.171946
v 1.198639 -0.196601 -0.331387
v 0.922405 -0.196601 -0.225408
v 0.974369 -0.196601 -0.063170
v 0.231275 -0.196601 0.065453
v 0.209659 -0.196601 -0.102366
v 0.689403 0.241904 0.003557
v 0.646171 0.241904 -0.119430
v 1.259336 0.241904 -0.171946
v 1.198639 0.241904 -0.331387
v 0.974370 0.241904 -0.063170
v 0.922405 0.241904 -0.225408
v 0.209659 0.241904 -0.102366
v 0.231275 0.241904 0.065453
v 0.253725 -1.570206 0.244904
v 0.711853 1.255065 0.183008
v 0.711853 1.658675 0.183008
v 0.253725 1.658675 0.244904
v 1.281786 1.255065 0.007505
v 1.281786 1.658675 0.007505
v 0.996820 1.658675 0.116280
v 0.996819 -1.570206 0.116280
v 0.711853 -1.570206 0.183008
v 1.281786 -0.196601 0.007505
v 1.281786 0.044234 0.007505
v 0.253725 0.044234 0.244904
v 0.996819 0.044234 0.116280
v 1.281786 0.241904 0.007505
v 1.281786 0.851455 0.007505
v 0.253725 0.851455 0.244904
v 0.996819 0.851455 0.116280
v 0.253725 1.255065 0.244904
v 0.996819 1.255065 0.116280
v 1.281786 -1.166596 0.007505
v 1.281786 -0.762986 0.007505
v 0.996819 -0.762986 0.116280
v 0.253725 -0.762986 0.244904
v 0.711853 -1.166596 0.183008
v 1.281785 -1.570206 0.007505
v 0.996819 -1.166596 0.116280
v 0.253725 -1.166596 0.244904
v 0.711853 0.044234 0.183008
v 0.996819 0.241904 0.116280
v 0.996819 -0.196601 0.116280
v 0.253725 -0.196601 0.244904
v 0.253725 0.241904 0.244904
v 0.711853 0.241904 0.183008
v 0.551989 0.851455 -0.364918
v 0.551989 1.255065 -0.364918
v 0.551989 -1.166596 -0.364918
v 0.551989 -0.762986 -0.364918
v 0.828223 0.851455 -0.470896
v 0.828223 1.255065 -0.470896
v 0.828223 -0.762986 -0.470896
v 0.828223 -1.166596 -0.470896
v 0.462383 0.851455 -0.598477
v 0.462383 1.255065 -0.598477
v 0.462383 -1.166596 -0.598477
v 0.462383 -0.762986 -0.598477
v 0.738617 0.851455 -0.704455
v 0.738617 1.255065 -0.704455
v 0.738617 -0.762986 -0.704455
v 0.738617 -1.166596 -0.704455
v -0.689403 -1.570206 0.045605
v -0.646172 -1.570206 -0.119430
v 0.000000 -1.570206 -0.085302
v 0.000000 -1.570206 0.085302
v -0.689403 1.658675 0.045605
v -0.646171 1.658675 -0.119430
v 0.000000 1.658675 -0.085302
v 0.000000 1.658675 0.085302
v -1.259336 -1.570206 -0.171946
v -1.198640 -1.570206 -0.331387
v -1.259336 1.658675 -0.171946
v -1.198639 1.658675 -0.331387
v -0.689403 0.044234 0.003557
v -0.646171 0.044234 -0.119430
v 0.000000 0.044234 -0.085302
v -1.259336 0.044234 -0.171946
v -1.198639 0.044234 -0.331387
v -0.689403 0.851455 0.003557
v -0.646171 0.851455 -0.119430
v 0.000000 0.851455 -0.085302
v -1.259336 0.851455 -0.171946
v -1.198639 0.851455 -0.331387
v -0.689403 1.255065 0.003557
v -0.646171 1.255065 -0.119430
v 0.000000 1.255065 -0.085302
v -1.259336 1.255065 -0.171946
v -1.198639 1.255065 -0.331387
v -0.689403 -0.762986 0.003557
v -0.646172 -0.762986 -0.119430
v 0.000000 -0.762986 -0.085302
v -1.259336 -0.762986 -0.171946
v -1.198639 -0.762986 -0.331387
v -0.689403 -1.166596 0.003557
v -0.646172 -1.166596 -0.119430
v 0.000000 -1.166596 -0.085302
v -1.259336 -1.166596 -0.171946
v -1.198639 -1.166596 -0.331387
v -0.974370 1.658675 -0.063170
v -0.974369 -1.570206 -0.063170
v -0.922406 -1.570206 -0.225409
v -0.922405 1.658675 -0.225408
v -0.922405 0.044234 -0.225408
v -0.974370 0.044234 -0.063170
v -0.922405 0.851455 -0.225408
v -0.974370 0.851455 -0.063170
v -0.922405 1.255065 -0.225408
v -0.974370 1.255065 -0.063170
v -0.974369 -0.762986 -0.063170
v -0.922405 -0.762986 -0.225408
v -0.974369 -1.166596 -0.063170
v -0.922405 -1.166596 -0.225409
v -0.231275 -1.570206 0.065453
v -0.209659 -1.570206 -0.102366
v -0.231275 1.658675 0.065453
v -0.209659 1.658675 -0.102366
v -0.231275 0.044234 0.065453
v -0.209659 0.044234 -0.102366
v -0.231275 0.851455 0.065453
v -0.209659 0.851455 -0.102366
v -0.231275 1.255065 0.065453
v -0.209659 1.255065 -0.102366
v -0.209659 -0.762986 -0.102366
v -0.231275 -0.762986 0.065453
v -0.209659 -1.166596 -0.102366
v -0.231275 -1.166596 0.065453
v -0.689403 -0.196601 0.003557
v -0.646171 -0.196601 -0.119430
v 0.000000 -0.196601 -0.085302
v -1.259336 -0.196601 -0.171946
v -1.198639 -0.196601 -0.331387
v -0.922405 -0.196601 -0.225408
v -0.974369 -0.196601 -0.063170
v -0.231275 -0.196601 0.065453
v -0.209659 -0.196601 -0.102366
v -0.689403 0.241904 0.003557
v -0.646171 0.241904 -0.119430
v 0.000000 0.241904 -0.085302
v -1.259336 0.241904 -0.171946
v -1.198639 0.241904 -0.331387
v -0.974370 0.241904 -0.063170
v -0.922405 0.241904 -0.225408
v -0.209659 0.241904 -0.102366
v -0.231275 0.241904 0.065453
v -0.253725 -1.570206 0.244904
v 0.000000 -1.570206 0.258393
v -0.711853 1.255065 0.183008
v -0.711853 1.658675 0.183008
v 0.000000 1.255065 0.258393
v 0.000000 1.658675 0.258393
v -0.253725 1.658675 0.244904
v -1.281786 1.255065 0.007505
v -1.281786 1.658675 0.007505
v -0.996820 1.658675 0.116280
v -0.996819 -1.570206 0.116280
v -0.711853 -1.570206 0.183008
v 0.000000 -0.196601 0.258393
v 0.000000 0.044234 0.258393
v -1.281786 -0.196601 0.007505
v -1.281786 0.044234 0.007505
v -0.253725 0.044234 0.244904
v -0.996819 0.044234 0.116280
v 0.000000 0.241904 0.258393
v 0.000000 0.851455 0.258393
v -1.281786 0.241904 0.007505
v -1.281786 0.851455 0.007505
v -0.253725 0.851455 0.244904
v -0.996819 0.851455 0.116280
v -0.253725 1.255065 0.244904
v -0.996819 1.255065 0.116280
v 0.000000 -1.166596 0.258393
v 0.000000 -0.762986 0.258393
v -1.281786 -1.166596 0.007505
v -1.281786 -0.762986 0.007505
v -0.996819 -0.762986 0.116280
v -0.253725 -0.762986 0.244904
v -0.711853 -1.166596 0.183008
v -1.281785 -1.570206 0.007505
v -0.996819 -1.166596 0.116280
v -0.253725 -1.166596 0.244904
v -0.711853 0.044234 0.183008
v -0.996819 0.241904 0.116280
v -0.996819 -0.196601 0.116280
v -0.253725 -0.196601 0.244904
v -0.253725 0.241904 0.244904
v -0.711853 0.241904 0.183008
v -0.551989 0.851455 -0.364918
v -0.551989 1.255065 -0.364918
v -0.551989 -1.166596 -0.364918
v -0.551989 -0.762986 -0.364918
v -0.828223 0.851455 -0.470896
v -0.828223 1.255065 -0.470896
v -0.828223 -0.762986 -0.470896
v -0.828223 -1.166596 -0.470896
v -0.462383 0.851455 -0.598477
v -0.462383 1.255065 -0.598477
v -0.462383 -1.166596 -0.598477
v -0.462383 -0.762986 -0.598477
v -0.738617 0.851455 -0.704455
v -0.738617 1.255065 -0.704455
v -0.738617 -0.762986 -0.704455
v -0.738617 -1.166596 -0.704455
vn 0.0000 -1.0000 0.0000
vn 0.0000 1.0000 -0.0000
vn 0.9923 -0.0000 -0.1241
vn -0.0601 0.0000 -0.9982
vn 0.0000 0.0000 -1.0000
vn 0.9704 0.0000 -0.2417
vn 0.9346 0.0000 -0.3558
vn -0.9923 0.0000 0.1241
vn -0.3582 -0.0000 -0.9336
vn -0.9336 -0.0000 0.3582
vn -0.2013 -0.0000 -0.9795
vn -0.1472 -0.0000 -0.9891
vn 0.9336 0.0000 -0.3582
vn 0.3144 0.0000 0.9493
vn 0.3566 0.0000 0.9343
vn 0.2930 0.0000 0.9561
vn 0.0801 0.0000 0.9968
vn 0.0000 0.0000 1.0000
vn 0.0936 0.0000 0.9956
vn 0.0531 0.0000 0.9986
vn 0.1811 0.0000 0.9835
vn 0.3582 0.0000 0.9336
vn -0.9923 -0.0000 -0.1241
vn 0.0601 0.0000 -0.9982
vn -0.9704 0.0000 -0.2417
vn -0.9346 0.0000 -0.3558
vn 0.9923 0.0000 0.1241
vn 0.3582 -0.0000 -0.9336
vn 0.9336 -0.0000 0.3582
vn 0.2013 -0.0000 -0.9795
vn 0.1472 -0.0000 -0.9891
vn -0.9336 0.0000 -0.3582
vn -0.3144 0.0000 0.9493
vn -0.2930 0.0000 0.9561
vn -0.3566 0.0000 0.9343
vn -0.0801 0.0000 0.9968
vn -0.0936 0.0000 0.9956
vn -0.0531 0.0000 0.9986
vn -0.1811 0.0000 0.9835
vn -0.3582 0.0000 0.9336
vn 0.2280 0.0000 0.9737
vn 0.1339 0.0000 0.9910
vn -0.2280 0.0000 0.9737
vn -0.1339 0.0000 0.9910
usemtl shieled_01
s 1
f 43//1 125//1 124//1 44//1
f 45//2 46//2 128//2 129//2
f 63//3 103//3 95//3 54//3
f 52//4 146//5 128//5 46//4
f 19//6 20//7 8//7 7//6
f 62//8 102//8 85//8 34//8
f 31//1 6//1 5//1 30//1
f 29//2 7//2 8//2 32//2
f 42//9 28//9 6//9 31//9
f 70//9 68//9 12//9 33//9
f 17//1 74//1 90//1 51//1
f 59//6 60//7 12//7 11//6
f 64//4 189//5 136//5 48//4
f 30//1 80//1 81//1 1//1
f 38//1 91//1 74//1 17//1
f 37//9 20//9 16//9 35//9
f 67//6 68//7 16//7 15//6
f 71//4 198//5 141//5 50//4
f 23//6 93//3 92//3 27//6
f 32//9 8//9 20//9 37//9
f 51//3 90//3 88//3 49//3
f 15//6 16//7 20//7 19//6
f 50//4 141//5 146//5 52//4
f 39//8 94//8 102//8 62//8
f 29//2 79//2 78//2 7//2
f 55//4 156//5 151//5 53//4
f 27//6 28//7 24//7 23//6
f 61//9 60//9 24//9 40//9
f 65//2 105//2 101//2 69//2
f 5//6 6//7 28//7 27//6
f 44//4 124//5 156//5 55//4
f 43//1 73//1 206//1 125//1
f 40//9 24//9 28//9 42//9
f 27//6 92//3 97//3 5//6
f 18//10 107//10 106//10 14//10
f 59//6 82//3 93//3 23//6
f 58//11 61//9 40//9 22//12
f 4//11 32//9 37//9 18//12
f 42//13 113//13 112//13 40//13
f 66//11 70//9 33//9 10//11
f 26//12 42//9 31//9 2//11
f 3//2 29//2 32//2 4//2
f 2//1 31//1 30//1 1//1
f 9//1 100//1 84//1 47//1
f 2//11 44//4 55//4 26//12
f 26//12 55//4 53//4 22//12
f 14//12 50//4 52//4 18//12
f 7//6 78//3 77//3 19//6
f 66//11 71//4 50//4 14//12
f 58//11 64//4 48//4 10//11
f 34//1 85//1 100//1 9//1
f 36//8 89//8 91//8 38//8
f 18//12 52//4 46//4 4//11
f 3//2 4//2 46//2 45//2
f 1//1 43//1 44//1 2//1
f 22//12 53//4 64//4 58//11
f 10//11 33//9 61//9 58//11
f 72//2 104//2 105//2 65//2
f 33//9 12//9 60//9 61//9
f 47//3 84//3 103//3 63//3
f 53//4 151//5 189//5 64//4
f 23//6 24//7 60//7 59//6
f 10//11 48//4 71//4 66//11
f 14//12 35//9 70//9 66//11
f 41//8 98//8 94//8 39//8
f 45//2 76//2 75//2 3//2
f 48//4 136//5 198//5 71//4
f 11//6 12//7 68//7 67//6
f 11//6 83//3 82//3 59//6
f 35//9 16//9 68//9 70//9
f 91//14 77//15 78//15 79//16
f 99//17 231//18 206//18 73//19
f 104//17 223//18 218//18 84//17
f 102//15 82//15 83//15 85//14
f 90//17 209//18 224//18 88//20
f 101//14 86//15 87//15 89//15
f 76//19 210//18 209//18 90//17
f 89//15 87//15 77//15 91//14
f 98//14 92//15 93//15 94//15
f 103//20 217//18 232//18 95//20
f 80//16 97//15 92//15 98//14
f 95//20 232//18 231//18 99//17
f 81//21 80//16 98//14 96//21
f 74//21 91//14 79//16 75//21
f 75//21 76//19 90//17 74//21
f 105//21 104//17 84//17 100//21
f 96//21 99//17 73//19 81//21
f 84//17 218//18 217//18 103//20
f 94//15 93//15 82//15 102//15
f 100//21 85//14 101//14 105//21
f 85//14 83//15 86//15 101//14
f 88//20 224//18 223//18 104//17
f 49//3 88//3 104//3 72//3
f 19//6 77//3 87//3 15//6
f 67//6 86//3 83//3 11//6
f 25//2 96//2 98//2 41//2
f 3//2 75//2 79//2 29//2
f 15//6 87//3 86//3 67//6
f 69//8 101//8 89//8 36//8
f 56//2 99//2 96//2 25//2
f 5//1 97//1 80//1 30//1
f 129//2 210//2 76//2 45//2
f 1//1 81//1 73//1 43//1
f 54//3 95//3 99//3 56//3
f 109//10 106//10 114//10 117//10
f 113//13 121//13 120//13 112//13
f 22//10 109//10 108//10 26//10
f 35//13 110//13 111//13 37//13
f 37//2 111//2 107//2 18//2
f 14//1 106//1 110//1 35//1
f 26//1 108//1 113//1 42//1
f 40//2 112//2 109//2 22//2
f 117//9 120//9 121//9 116//9
f 115//9 119//9 118//9 114//9
f 120//13 118//13 110//13 112//13
f 107//10 115//10 114//10 106//10
f 110//13 118//13 119//13 111//13
f 108//1 116//1 121//1 113//1
f 111//2 119//2 115//2 107//2
f 109//10 117//10 116//10 108//10
f 110//22 106//22 109//22 112//22
f 118//9 120//9 117//9 114//9
f 173//1 174//1 124//1 125//1
f 175//2 129//2 128//2 176//2
f 194//23 184//23 236//23 244//23
f 182//24 176//24 128//5 146//5
f 147//25 132//25 133//26 148//26
f 193//27 164//27 222//27 243//27
f 161//1 160//1 130//1 131//1
f 159//2 162//2 133//2 132//2
f 172//28 161//28 131//28 158//28
f 202//28 163//28 138//28 200//28
f 144//1 181//1 229//1 207//1
f 190//25 137//25 138//26 191//26
f 195//24 178//24 136//5 189//5
f 160//1 122//1 216//1 215//1
f 168//1 144//1 207//1 230//1
f 167//28 165//28 143//28 148//28
f 199//25 142//25 143//26 200//26
f 203//24 180//24 141//5 198//5
f 152//25 157//25 233//23 234//23
f 162//28 167//28 148//28 133//28
f 181//23 179//23 227//23 229//23
f 142//25 147//25 148//26 143//26
f 180//24 182//24 146//5 141//5
f 169//27 193//27 243//27 235//27
f 159//2 132//2 213//2 214//2
f 185//24 183//24 151//5 156//5
f 157//25 152//25 153//26 158//26
f 192//28 170//28 153//28 191//28
f 196//2 201//2 242//2 246//2
f 130//25 157//25 158//26 131//26
f 174//24 185//24 156//5 124//5
f 173//1 125//1 206//1 205//1
f 170//28 172//28 158//28 153//28
f 157//25 130//25 238//23 233//23
f 145//29 140//29 247//29 248//29
f 190//25 152//25 234//23 219//23
f 188//30 150//31 170//28 192//28
f 127//30 145//31 167//28 162//28
f 172//32 170//32 253//32 254//32
f 197//30 135//30 163//28 202//28
f 155//31 123//30 161//28 172//28
f 126//2 127//2 162//2 159//2
f 123//1 122//1 160//1 161//1
f 134//1 177//1 221//1 241//1
f 123//30 155//31 185//24 174//24
f 155//31 150//31 183//24 185//24
f 140//31 145//31 182//24 180//24
f 132//25 147//25 212//23 213//23
f 197//30 140//31 180//24 203//24
f 188//30 135//30 178//24 195//24
f 164//1 134//1 241//1 222//1
f 166//27 168//27 230//27 228//27
f 145//31 127//30 176//24 182//24
f 126//2 175//2 176//2 127//2
f 122//1 123//1 174//1 173//1
f 150//31 188//30 195//24 183//24
f 135//30 188//30 192//28 163//28
f 204//2 196//2 246//2 245//2
f 163//28 192//28 191//28 138//28
f 177//23 194//23 244//23 221//23
f 183//24 195//24 189//5 151//5
f 152//25 190//25 191//26 153//26
f 135//30 197//30 203//24 178//24
f 140//31 197//30 202//28 165//28
f 171//27 169//27 235//27 239//27
f 175//2 126//2 208//2 211//2
f 178//24 203//24 198//5 136//5
f 137//25 199//25 200//26 138//26
f 137//25 190//25 219//23 220//23
f 165//28 202//28 200//28 143//28
f 230//33 214//34 213//35 212//35
f 240//36 205//37 206//18 231//18
f 245//36 221//36 218//18 223//18
f 243//35 222//33 220//35 219//35
f 229//36 227//38 224//18 209//18
f 242//33 228//35 226//35 225//35
f 211//37 229//36 209//18 210//18
f 228//35 230//33 212//35 226//35
f 239//33 235//35 234//35 233//35
f 244//38 236//38 232//18 217//18
f 215//34 239//33 233//35 238//35
f 236//38 240//36 231//18 232//18
f 216//39 237//39 239//33 215//34
f 207//39 208//39 214//34 230//33
f 208//39 207//39 229//36 211//37
f 246//39 241//39 221//36 245//36
f 237//39 216//39 205//37 240//36
f 221//36 244//38 217//18 218//18
f 235//35 243//35 219//35 234//35
f 241//39 246//39 242//33 222//33
f 222//33 242//33 225//35 220//35
f 227//38 245//36 223//18 224//18
f 179//23 204//23 245//23 227//23
f 147//25 142//25 226//23 212//23
f 199//25 137//25 220//23 225//23
f 154//2 171//2 239//2 237//2
f 126//2 159//2 214//2 208//2
f 142//25 199//25 225//23 226//23
f 201//27 166//27 228//27 242//27
f 186//2 154//2 237//2 240//2
f 130//1 160//1 215//1 238//1
f 129//2 175//2 211//2 210//2
f 122//1 173//1 205//1 216//1
f 184//23 186//23 240//23 236//23
f 250//29 258//29 255//29 247//29
f 254//32 253//32 261//32 262//32
f 150//29 155//29 249//29 250//29
f 165//32 167//32 252//32 251//32
f 167//2 145//2 248//2 252//2
f 140//1 165//1 251//1 247//1
f 155//1 172//1 254//1 249//1
f 170//2 150//2 250//2 253//2
f 258//28 257//28 262//28 261//28
f 256//28 255//28 259//28 260//28
f 261//32 253//32 251//32 259//32
f 248//29 247//29 255//29 256//29
f 251//32 252//32 260//32 259//32
f 249//1 254//1 262//1 257//1
f 252//2 248//2 256//2 260//2
f 250//29 249//29 257//29 258//29
f 251//40 253//40 250//40 247//40
f 259//28 255//28 258//28 261//28
usemtl shieled_02
f 25//21 41//41 39//41 21//21
f 13//21 36//41 38//41 17//21
f 65//21 69//41 36//41 13//21
f 57//21 62//41 34//41 9//21
f 21//21 54//42 56//42 25//21
f 57//21 63//42 54//42 21//21
f 17//21 51//42 49//42 13//21
f 9//21 47//42 63//42 57//21
f 21//21 39//41 62//41 57//21
f 13//21 49//42 72//42 65//21
f 154//39 149//39 169//43 171//43
f 139//39 144//39 168//43 166//43
f 196//39 139//39 166//43 201//43
f 187//39 134//39 164//43 193//43
f 149//39 154//39 186//44 184//44
f 187//39 149//39 184//44 194//44
f 144//39 139//39 179//44 181//44
f 134//39 187//39 194//44 177//44
f 149//39 187//39 193//43 169//43
f 139//39 196//39 204//44 179//44
